# xmcd CD database file
#
# Track frame offsets:
#	150
#	13772
#	33981
#	50528
#	72841
#	87557
#	108446
#	130378
#	147419
#	175484
#	190250
#	211439
#	228295
#
# Disc length: 3489 seconds
#
# Revision: 0
# Processed by: cddbd v1.5.1PL2 Copyright (c) Steve Scherf et al.
# Submitted via: CDex 1.51
#
DISCID=bf0d9f0d
DTITLE=BC and the Blues Crew - Creole Etoufee
DYEAR=2000
DGENRE=Blues
TTITLE0=Final Chapter on You
TTITLE1=I Just Want
TTITLE2=To Whom It May Concern
TTITLE3=Bill Paxton, Help Us Escape
TTITLE4=Hey Hey
TTITLE5=Race Street
TTITLE6=Baby She's Your Crime
TTITLE7=Taking Out the Garbage
TTITLE8=Searched So Long
TTITLE9=Tear It Down
TTITLE10=Many Miles
TTITLE11=Bit Cat Smile
TTITLE12=Don't Mess With Me Baby
EXTD=YEAR: 2000
EXTT0=
EXTT1=
EXTT2=
EXTT3=
EXTT4=
EXTT5=
EXTT6=
EXTT7=
EXTT8=
EXTT9=
EXTT10=
EXTT11=
EXTT12=
PLAYORDER=
